<?xml version="1.0" encoding="utf-8"?>
<svg xmlns="http://www.w3.org/2000/svg" viewBox="0 0 48 48" width="144" height="144">
  <path d="M10.5 6C8.0324991 6 6 8.0324991 6 10.5L6 18.5L6 26.5L6 38.5C6 40.967501 8.0324991 43 10.5 43L37.5 43C39.967501 43 42 40.967501 42 38.5L42 26.5L42 18.5L42 10.5C42 8.0324991 39.967501 6 37.5 6L10.5 6 z M 10.5 9L37.5 9C38.346499 9 39 9.6535009 39 10.5L39 18.5L39 26.5C39 27.346499 38.346499 28 37.5 28L10.5 28C9.6535009 28 9 27.346499 9 26.5L9 18.5L9 10.5C9 9.6535009 9.6535009 9 10.5 9 z M 9 30.720703C9.4720958 30.890843 9.9725476 31 10.5 31L37.5 31C38.027452 31 38.527904 30.890843 39 30.720703L39 38.5C39 39.346499 38.346499 40 37.5 40L10.5 40C9.6535009 40 9 39.346499 9 38.5L9 30.720703 z M 33.5 33.5 A 2 2 0 0 0 33.5 37.5 A 2 2 0 0 0 33.5 33.5 z M 14.5 34 A 1.50015 1.50015 0 1 0 14.5 37L26.5 37 A 1.50015 1.50015 0 1 0 26.5 34L14.5 34 z" fill="#FFFFFF" />
</svg>