<?xml version="1.0" encoding="utf-8"?>
<svg xmlns="http://www.w3.org/2000/svg" viewBox="0 0 24 24" width="192" height="192">
  <path d="M12,4.5C12,3.119,10.881,2,9.5,2C8.275,2,7.26,2.883,7.046,4.046C5.33,4.271,4,5.723,4,7.5c0,0.165,0.026,0.323,0.049,0.482C2.812,8.893,2,10.347,2,12s0.812,3.107,2.049,4.018C4.026,16.177,4,16.335,4,16.5c0,1.777,1.33,3.229,3.046,3.454C7.26,21.117,8.275,22,9.5,22c1.381,0,2.5-1.119,2.5-2.5c0-0.148,3-0.5,5-2.5c1.581-1.581,3-6,1-9S12,4.654,12,4.5z" opacity=".35" fill="#FFFFFF" />
  <path d="M7,14c-0.553,0-1,0.447-1,1s0.447,1,1,1c0.448,0,1,0.552,1,1c0,0.553,0.447,1,1,1s1-0.447,1-1C10,15.458,8.542,14,7,14z" fill="#FFFFFF" />
  <path d="M22,12c0-1.653-0.812-3.107-2.049-4.018C19.974,7.823,20,7.665,20,7.5c0-1.777-1.33-3.229-3.046-3.454 C16.74,2.883,15.725,2,14.5,2C13.119,2,12,3.119,12,4.5c0,0.076,0,0.252,0,0.5c0,2.821-2.501,2.994-3.005,3 C8.445,8.003,8,8.449,8,9c0,0.553,0.447,1,1,1c0.824,0,1.997-0.243,3-0.919c0,0.926,0,1.919,0,2.914C12.006,12.499,12.179,15,15,15 c0.553,0,1,0.447,1,1s-0.447,1-1,1c-1.289,0-2.265-0.351-3-0.879c0,1.779,0,3.12,0,3.379c0,1.381,1.119,2.5,2.5,2.5 c1.225,0,2.24-0.883,2.454-2.046C18.67,19.729,20,18.277,20,16.5c0-0.165-0.026-0.323-0.049-0.482C21.188,15.107,22,13.653,22,12z M17,12c-0.553,0-1-0.447-1-1c0-0.448-0.552-1-1-1c-0.553,0-1-0.447-1-1s0.447-1,1-1c1.542,0,3,1.458,3,3 C18,11.553,17.553,12,17,12z" fill="#FFFFFF" />
</svg>