<?xml version="1.0" encoding="utf-8"?>
<svg xmlns="http://www.w3.org/2000/svg" viewBox="0 0 24 24" width="192" height="192">
  <rect width="5.611" height="3.42" x="7.549" y="17.58" opacity=".35" fill="#FFFFFF" />
  <path d="M12,2c-1.657,0-3,1.343-3,3s1.343,3,3,3s3-1.343,3-3S13.657,2,12,2z" opacity=".35" fill="#FFFFFF" />
  <path d="M21.394,15.081l-3.186-1.365l-1.477-2.659C16.026,9.788,14.687,9,13.234,9h-2.469c-1.452,0-2.792,0.788-3.497,2.058l-1.477,2.658l-3.186,1.365c-0.508,0.218-0.743,0.806-0.525,1.312c0.217,0.509,0.808,0.744,1.312,0.525l3.5-1.5C7.098,15.332,8,14.669,8,14.669v1.775l-3.345,1.711c-0.556,0.398-0.788,1.104-0.578,1.756S4.887,21,5.571,21h2.603c-0.042-0.117-0.08-0.236-0.106-0.359c-0.13-0.615-0.068-1.201,0.135-1.716C8.429,18.352,9.012,18,9.628,18h0.61c0.833,0,1.638,0.247,2.325,0.696L10.581,19c-0.552,0-1,0.447-1,1s0.448,1,1,1h7.848c0.684,0,1.285-0.438,1.495-1.089s-0.022-1.357-0.578-1.756L16,16.469v-1.8c0,0,0.902,0.663,1.106,0.75l3.5,1.5C20.734,16.975,20.868,17,21,17c0.388,0,0.757-0.227,0.919-0.606C22.137,15.887,21.901,15.299,21.394,15.081z" fill="#FFFFFF" />
</svg>