<?xml version="1.0" encoding="utf-8"?>
<svg xmlns="http://www.w3.org/2000/svg" viewBox="0 0 24 24" width="192" height="192">
  <path d="M6,16c-1.657,0-3-1.343-3-3V6c0-1.657,1.343-3,3-3h12c1.657,0,3,1.343,3,3v7c0,1.657-1.343,3-3,3H6z" opacity=".35" fill="#FFFFFF" />
  <circle cx="6.5" cy="4.5" r="2.5" fill="#FFFFFF" />
  <path d="M13.929,8H5c-1.105,0-2,0.895-2,2v10.89c0,0.548,0.394,1.045,0.94,1.103c0.587,0.063,1.101-0.36,1.165-0.933l0.526-4.73C5.651,16.143,5.81,16,6,16l0,0c0.19,0,0.349,0.143,0.37,0.331l0.52,4.682c0.058,0.52,0.468,0.954,0.99,0.985C8.493,22.034,9,21.549,9,20.945v-9.636c0-0.259,0.191-0.479,0.447-0.516l4.584-0.655c0.518-0.074,0.942-0.492,0.967-1.014C15.028,8.508,14.538,8,13.929,8z" fill="#FFFFFF" />
</svg>