<?xml version="1.0" encoding="utf-8"?>
<svg xmlns="http://www.w3.org/2000/svg" viewBox="0 0 24 24" width="192" height="192">
  <path fill-rule="evenodd" d="M8.991,3.897c0.571-1.092,1.878-1.909,3.351-1.909s2.781,0.816,3.351,1.909c1.176-0.369,2.677-0.022,3.72,1.02c1.042,1.042,1.389,2.543,1.02,3.72c1.092,0.571,1.909,1.878,1.909,3.351s-0.816,2.78-1.909,3.351c0.369,1.176,0.022,2.677-1.02,3.72c-1.042,1.042-2.543,1.389-3.72,1.02c-0.571,1.092-1.878,1.909-3.351,1.909s-2.78-0.816-3.351-1.909c-1.176,0.369-2.678,0.022-3.72-1.02c-1.042-1.042-1.389-2.544-1.02-3.72c-1.092-0.571-1.909-1.878-1.909-3.351s0.816-2.781,1.909-3.351c-0.369-1.176-0.022-2.677,1.02-3.72C6.313,3.875,7.815,3.529,8.991,3.897z" clip-rule="evenodd" opacity=".35" fill="#FFFFFF" />
  <path d="M11,16c-0.256,0-0.512-0.098-0.707-0.293l-3-3c-0.391-0.391-0.391-1.023,0-1.414s1.023-0.391,1.414,0L11,13.586l4.293-4.293c0.391-0.391,1.023-0.391,1.414,0s0.391,1.023,0,1.414l-5,5C11.512,15.902,11.256,16,11,16z" fill="#FFFFFF" />
</svg>